name Run_200 02_newCOP3_v24.mot
datacolumns 19
datarows 111
range 4.283333 4.397917
DataType=double
version=3
OpenSimVersion=4.3-2021-08-27-4bc7ad9
endheader
time	R_ground_force_vx	R_ground_force_vy	R_ground_force_vz	R_ground_force_px	R_ground_force_py	R_ground_force_pz	L_ground_force_vx	L_ground_force_vy	L_ground_force_vz	L_ground_force_px	L_ground_force_py	L_ground_force_pz	R_ground_torque_x	R_ground_torque_y	R_ground_torque_z	L_ground_torque_x	L_ground_torque_y	L_ground_torque_z
4.283333	-139.925674	1132.285522	-16.169744	1.031843	0	-0.293573	0	0	0	0	0	0	0	-0.460225	0	0	0	0
4.284375	-138.757492	1142.718262	-16.733509	1.030444	0	-0.293439	0	0	0	0	0	0	0	-0.26819	0	0	0	0
4.285417	-137.475952	1153.010254	-17.343168	1.029034	0	-0.293322	0	0	0	0	0	0	0	-0.07977099999999999	0	0	0	0
4.286458	-136.091003	1163.143677	-18.00062	1.027616	0	-0.293219	0	0	0	0	0	0	-0	0.10481	-0	0	0	0
4.2875	-134.614334	1173.103271	-18.706182	1.026189	0	-0.29313	0	0	0	0	0	0	-0	0.285352	-0	0	0	0
4.288542	-133.05896	1182.875854	-19.458635	1.024755	0	-0.293054	0	0	0	0	0	0	-0	0.461676	-0	0	0	0
4.289583	-131.438919	1192.450684	-20.25531	1.023315	0	-0.29299	0	0	0	0	0	0	-0	0.633621	-0	0	0	0
4.290625	-129.768814	1201.819458	-21.092216	1.021869	0	-0.292934	0	0	0	0	0	0	-0	0.801044	-0	0	0	0
4.291667	-128.063385	1210.976563	-21.964178	1.020419	0	-0.292887	0	0	0	0	0	0	-0	0.963821	-0	0	0	0
4.292708	-126.337036	1219.918213	-22.865011	1.018965	0	-0.292845	0	0	0	0	0	0	-0	1.121847	-0	0	0	0
4.29375	-124.603432	1228.643066	-23.787712	1.017508	0	-0.292808	0	0	0	0	0	0	-0	1.275032	-0	0	0	0
4.294792	-122.875153	1237.151855	-24.724663	1.016048	0	-0.292773	0	0	0	0	0	0	-0	1.423304	-0	0	0	0
4.295833	-121.163376	1245.446899	-25.667847	1.014588	0	-0.292738	0	0	0	0	0	0	-0	1.566607	-0	0	0	0
4.296875	-119.477715	1253.532471	-26.609058	1.013127	0	-0.292702	0	0	0	0	0	0	-0	1.704899	-0	0	0	0
4.297917	-117.826134	1261.413696	-27.540129	1.011666	0	-0.292663	0	0	0	0	0	0	-0	1.838157	-0	0	0	0
4.298958	-116.214905	1269.09729	-28.453127	1.010206	0	-0.292618	0	0	0	0	0	0	-0	1.96637	-0	0	0	0
4.3	-114.648712	1276.590332	-29.340551	1.008747	0	-0.292568	0	0	0	0	0	0	-0	2.089545	-0	0	0	0
4.301042	-113.130821	1283.900635	-30.19552	1.007289	0	-0.29251	0	0	0	0	0	0	-0	2.207701	-0	0	0	0
4.302083	-111.663223	1291.035889	-31.011917	1.005834	0	-0.292444	0	0	0	0	0	0	-0	2.320871	-0	0	0	0
4.303125	-110.246872	1298.003906	-31.784527	1.004381	0	-0.292369	0	0	0	0	0	0	-0	2.429104	-0	0	0	0
4.304167	-108.881866	1304.81189	-32.509144	1.002931	0	-0.292285	0	0	0	0	0	0	-0	2.532462	-0	0	0	0
4.305208	-107.56768	1311.466431	-33.18264	1.001485	0	-0.292191	0	0	0	0	0	0	-0	2.631016	-0	0	0	0
4.30625	-106.303246	1317.973267	-33.80302	1.000042	0	-0.292088	0	0	0	0	0	0	-0	2.724855	-0	0	0	0
4.307292	-105.087105	1324.337036	-34.369427	0.998603	0	-0.291976	0	0	0	0	0	0	-0	2.814074	-0	0	0	0
4.308333	-103.917412	1330.561035	-34.882126	0.9971680000000001	0	-0.291855	0	0	0	0	0	0	-0	2.898783	-0	0	0	0
4.309375	-102.791985	1336.647705	-35.342464	0.995738	0	-0.291728	0	0	0	0	0	0	-0	2.979099	-0	0	0	0
4.310417	-101.708221	1342.5979	-35.752792	0.994312	0	-0.291594	0	0	0	0	0	0	-0	3.05515	-0	0	0	0
4.311458	-100.663101	1348.411377	-36.116364	0.9928900000000001	0	-0.291456	0	0	0	0	0	0	-0	3.12707	-0	0	0	0
4.3125	-99.653091	1354.086792	-36.437229	0.991473	0	-0.291314	0	0	0	0	0	0	-0	3.195002	-0	0	0	0
4.313542	-98.674164	1359.621826	-36.720085	0.9900600000000001	0	-0.291171	0	0	0	0	0	0	-0	3.259094	-0	0	0	0
4.314583	-97.72174099999999	1365.013428	-36.970135	0.9886509999999999	0	-0.291027	0	0	0	0	0	0	-0	3.319499	-0	0	0	0
4.315625	-96.790817	1370.258179	-37.192924	0.987245	0	-0.290885	0	0	0	0	0	0	-0	3.376373	-0	0	0	0
4.316667	-95.875984	1375.352051	-37.394188	0.985843	0	-0.290745	0	0	0	0	0	0	-0	3.429877	-0	0	0	0
4.317708	-94.971626	1380.29126	-37.579678	0.984445	0	-0.29061	0	0	0	0	0	0	-0	3.48017	-0	0	0	0
4.31875	-94.072075	1385.071899	-37.755013	0.983049	0	-0.29048	0	0	0	0	0	0	-0	3.527415	-0	0	0	0
4.319792	-93.171829	1389.690674	-37.925522	0.9816550000000001	0	-0.290356	0	0	0	0	0	0	-0	3.57177	-0	0	0	0
4.320833	-92.265755	1394.144775	-38.09613	0.980263	0	-0.29024	0	0	0	0	0	0	-0	3.613395	-0	0	0	0
4.321875	-91.349266	1398.432251	-38.271214	0.978874	0	-0.290132	0	0	0	0	0	0	-0	3.652445	-0	0	0	0
4.322917	-90.418526	1402.552124	-38.45451	0.977486	0	-0.290032	0	0	0	0	0	0	-0	3.689072	-0	0	0	0
4.323958	-89.470474	1406.504028	-38.64904	0.976099	0	-0.289941	0	0	0	0	0	0	-0	3.723422	-0	0	0	0
4.325	-88.50296	1410.289063	-38.857048	0.974714	0	-0.28986	0	0	0	0	0	0	-0	3.755636	-0	0	0	0
4.326042	-87.514633	1413.909302	-39.079967	0.97333	0	-0.289786	0	0	0	0	0	0	-0	3.785851	-0	0	0	0
4.327083	-86.504898	1417.367798	-39.318413	0.971948	0	-0.289722	0	0	0	0	0	0	-0	3.814195	-0	0	0	0
4.328125	-85.47376300000001	1420.668701	-39.572189	0.970566	0	-0.289665	0	0	0	0	0	0	-0	3.840788	-0	0	0	0
4.329167	-84.421593	1423.817383	-39.840324	0.969184	0	-0.289615	0	0	0	0	0	0	-0	3.865745	-0	0	0	0
4.330208	-83.348923	1426.819824	-40.121136	0.967803	0	-0.289571	0	0	0	0	0	0	-0	3.88917	-0	0	0	0
4.33125	-82.256203	1429.682983	-40.412285	0.966422	0	-0.289533	0	0	0	0	0	0	-0	3.911163	-0	0	0	0
4.332292	-81.14357800000001	1432.414429	-40.710892	0.965039	0	-0.289498	0	0	0	0	0	0	-0	3.931811	-0	0	0	0
4.333333	-80.01068100000001	1435.022095	-41.013615	0.963654	0	-0.289467	0	0	0	0	0	0	-0	3.951195	-0	0	0	0
4.334375	-78.85649100000001	1437.514404	-41.31678	0.962265	0	-0.289437	0	0	0	0	0	0	-0	3.96939	-0	0	0	0
4.335417	-77.67926799999999	1439.899536	-41.616486	0.9608719999999999	0	-0.289408	0	0	0	0	0	0	-0	3.98646	-0	0	0	0
4.336458	-76.47650899999999	1442.185547	-41.908737	0.959473	0	-0.289378	0	0	0	0	0	0	-0	4.002461	-0	0	0	0
4.3375	-75.245041	1444.380371	-42.18956	0.9580650000000001	0	-0.289346	0	0	0	0	0	0	-0	4.017444	-0	0	0	0
4.338542	-73.98110200000001	1446.490601	-42.455116	0.956649	0	-0.289312	0	0	0	0	0	0	-0	4.031451	-0	0	0	0
4.339583	-72.68055	1448.522339	-42.701809	0.955222	0	-0.289274	0	0	0	0	0	0	-0	4.044517	-0	0	0	0
4.340625	-71.339066	1450.480225	-42.926392	0.953782	0	-0.289232	0	0	0	0	0	0	-0	4.056671	-0	0	0	0
4.341667	-69.95240800000001	1452.367676	-43.126053	0.952329	0	-0.289184	0	0	0	0	0	0	-0	4.067935	-0	0	0	0
4.342708	-68.51667	1454.186523	-43.29847	0.950863	0	-0.289131	0	0	0	0	0	0	-0	4.078328	-0	0	0	0
4.34375	-67.02853399999999	1455.937134	-43.441879	0.949381	0	-0.289073	0	0	0	0	0	0	-0	4.087859	-0	0	0	0
4.344792	-65.485474	1457.61792	-43.555115	0.947885	0	-0.289008	0	0	0	0	0	0	-0	4.096534	-0	0	0	0
4.345833	-63.885948	1459.225952	-43.637608	0.946374	0	-0.288938	0	0	0	0	0	0	-0	4.104355	-0	0	0	0
4.346875	-62.229557	1460.756714	-43.6894	0.94485	0	-0.288862	0	0	0	0	0	0	-0	4.11132	-0	0	0	0
4.347917	-60.517094	1462.203979	-43.711117	0.943313	0	-0.288781	0	0	0	0	0	0	-0	4.117418	-0	0	0	0
4.348958	-58.750599	1463.560547	-43.703949	0.941765	0	-0.288696	0	0	0	0	0	0	-0	4.122639	-0	0	0	0
4.35	-56.933323	1464.817505	-43.669571	0.940208	0	-0.288606	0	0	0	0	0	0	-0	4.126967	-0	0	0	0
4.351042	-55.069664	1465.965332	-43.610111	0.938644	0	-0.288514	0	0	0	0	0	0	-0	4.130383	-0	0	0	0
4.352083	-53.165035	1466.99353	-43.528049	0.937076	0	-0.288418	0	0	0	0	0	0	-0	4.132863	-0	0	0	0
4.353125	-51.225735	1467.890747	-43.426159	0.9355059999999999	0	-0.288321	0	0	0	0	0	0	-0	4.13438	-0	0	0	0
4.354167	-49.258759	1468.645386	-43.3074	0.933936	0	-0.288223	0	0	0	0	0	0	-0	4.134904	-0	0	0	0
4.355208	-47.271614	1469.245361	-43.174831	0.93237	0	-0.288125	0	0	0	0	0	0	-0	4.134403	-0	0	0	0
4.35625	-45.272121	1469.678589	-43.031528	0.930809	0	-0.288028	0	0	0	0	0	0	-0	4.132839	-0	0	0	0
4.357292	-43.268211	1469.932861	-42.880486	0.9292550000000001	0	-0.287931	0	0	0	0	0	0	-0	4.130172	-0	0	0	0
4.358333	-41.267731	1469.996704	-42.724541	0.927711	0	-0.287837	0	0	0	0	0	0	-0	4.126359	-0	0	0	0
4.359375	-39.278252	1469.858398	-42.566299	0.926179	0	-0.287745	0	0	0	0	0	0	-0	4.121355	-0	0	0	0
4.360417	-37.306915	1469.507568	-42.408051	0.924659	0	-0.287656	0	0	0	0	0	0	-0	4.11511	-0	0	0	0
4.361458	-35.360245	1468.934204	-42.25174	0.923153	0	-0.28757	0	0	0	0	0	0	-0	4.107574	-0	0	0	0
4.3625	-33.444046	1468.129272	-42.098904	0.921661	0	-0.287488	0	0	0	0	0	0	-0	4.098691	-0	0	0	0
4.363542	-31.56328	1467.085327	-41.950645	0.920184	0	-0.28741	0	0	0	0	0	0	-0	4.088406	-0	0	0	0
4.364583	-29.72197	1465.795532	-41.807625	0.918723	0	-0.287335	0	0	0	0	0	0	-0	4.076659	-0	0	0	0
4.365625	-27.923153	1464.254761	-41.670033	0.917276	0	-0.287264	0	0	0	0	0	0	-0	4.06339	-0	0	0	0
4.366667	-26.168835	1462.459473	-41.537621	0.915844	0	-0.287197	0	0	0	0	0	0	-0	4.048537	-0	0	0	0
4.367708	-24.459988	1460.407227	-41.409698	0.914425	0	-0.287133	0	0	0	0	0	0	-0	4.032035	-0	0	0	0
4.36875	-22.79656	1458.09729	-41.285183	0.9130200000000001	0	-0.287073	0	0	0	0	0	0	-0	4.013821	-0	0	0	0
4.369792	-21.177513	1455.530396	-41.162617	0.911627	0	-0.287016	0	0	0	0	0	0	-0	3.993829	-0	0	0	0
4.370833	-19.600885	1452.70874	-41.04023	0.9102440000000001	0	-0.286961	0	0	0	0	0	0	-0	3.971993	-0	0	0	0
4.371875	-18.06386	1449.635986	-40.915977	0.908871	0	-0.286909	0	0	0	0	0	0	-0	3.948251	-0	0	0	0
4.372917	-16.562874	1446.316895	-40.787601	0.907506	0	-0.28686	0	0	0	0	0	0	-0	3.922536	-0	0	0	0
4.373958	-15.093711	1442.757446	-40.652691	0.906148	0	-0.286812	0	0	0	0	0	0	-0	3.894789	-0	0	0	0
4.375	-13.651628	1438.9646	-40.508739	0.904794	0	-0.286766	0	0	0	0	0	0	-0	3.864946	-0	0	0	0
4.376042	-12.231481	1434.946289	-40.353195	0.903444	0	-0.286721	0	0	0	0	0	0	-0	3.832951	-0	0	0	0
4.377083	-10.827861	1430.710571	-40.183529	0.902095	0	-0.286677	0	0	0	0	0	0	-0	3.798748	-0	0	0	0
4.378125	-9.435229	1426.266479	-39.997284	0.900747	0	-0.286635	0	0	0	0	0	0	-0	3.762287	-0	0	0	0
4.379167	-8.048057999999999	1421.622803	-39.792118	0.899397	0	-0.286593	0	0	0	0	0	0	-0	3.72352	-0	0	0	0
4.380208	-6.660965	1416.788086	-39.565857	0.898043	0	-0.286552	0	0	0	0	0	0	-0	3.682402	-0	0	0	0
4.38125	-5.268854	1411.771118	-39.316525	0.896686	0	-0.286511	0	0	0	0	0	0	-0	3.638898	-0	0	0	0
4.382292	-3.867031	1406.579712	-39.04237	0.895322	0	-0.286471	0	0	0	0	0	0	-0	3.592975	-0	0	0	0
4.383333	-2.451325	1401.221191	-38.741905	0.8939510000000001	0	-0.286432	0	0	0	0	0	0	-0	3.544606	-0	0	0	0
4.384375	-1.018187	1395.702148	-38.413914	0.892572	0	-0.286393	0	0	0	0	0	0	-0	3.493771	-0	0	0	0
4.385417	0.435231	1390.028564	-38.057465	0.891184	0	-0.286356	0	0	0	0	0	0	-0	3.440457	-0	0	0	0
4.386458	1.911019	1384.2052	-37.671913	0.889785	0	-0.28632	0	0	0	0	0	0	-0	3.384657	-0	0	0	0
4.3875	3.410482	1378.236328	-37.256908	0.8883760000000001	0	-0.286285	0	0	0	0	0	0	-0	3.326372	-0	0	0	0
4.388542	4.934144	1372.125	-36.812374	0.886956	0	-0.286251	0	0	0	0	0	0	-0	3.265611	-0	0	0	0
4.389583	6.481786	1365.874146	-36.338509	0.885525	0	-0.28622	0	0	0	0	0	0	-0	3.202389	-0	0	0	0
4.390625	8.052517999999999	1359.485352	-35.835766	0.884083	0	-0.286191	0	0	0	0	0	0	-0	3.13673	-0	0	0	0
4.391667	9.644879	1352.960327	-35.304825	0.8826310000000001	0	-0.286164	0	0	0	0	0	0	-0	3.068664	-0	0	0	0
4.392708	11.256968	1346.300049	-34.74659	0.881168	0	-0.28614	0	0	0	0	0	0	-0	2.998232	-0	0	0	0
4.39375	12.886586	1339.505371	-34.16214	0.879696	0	-0.28612	0	0	0	0	0	0	-0	2.925479	-0	0	0	0
4.394792	14.531398	1332.576904	-33.552719	0.878215	0	-0.286103	0	0	0	0	0	0	-0	2.850459	-0	0	0	0
4.395833	16.189077	1325.515381	-32.919708	0.876727	0	-0.28609	0	0	0	0	0	0	-0	2.773236	-0	0	0	0
4.396875	17.85746	1318.321411	-32.264584	0.875233	0	-0.286081	0	0	0	0	0	0	-0	2.693876	-0	0	0	0
4.397917	19.53466	1310.995972	-31.588902	0.873733	0	-0.286076	0	0	0	0	0	0	-0	2.612457	-0	0	0	0
